# xmcd
#
# Track frame offsets:
# 150
# 18221
# 34071
# 50229
# 63034
# 80163
# 97371
# 108970
# 124064
# 136399
# 150626
# 165262
# 181248
# 198892
# 227600
# 241519
# 256173
# 270324
# 284175
# 299974
# 314887
#
# Disc length: 4429 seconds
#
#
# Revision: 0
# Processed by: cddbd v1.5.1PL0 Copyright (c) Steve Scherf et al.
# Submitted via: FreeRIP 2.00 
#
DISCID=30114b15
DTITLE=Celso Piña - Exitos
DYEAR=2000
DGENRE=Folk/Rock
TTITLE0=El Tren
TTITLE1=El Tiempo
TTITLE2=Como el Viento
TTITLE3=Fiesta en San Jacinto
TTITLE4=Caballo Viejo
TTITLE5=Oye
TTITLE6=Ronda Tocando
TTITLE7=LA Piragua
TTITLE8=Libro Abierto
TTITLE9=Yo la Veo
TTITLE10=Cumbia Engolilla
TTITLE11=Para Entender tu Dolor
TTITLE12=Callarte Corazón
TTITLE13=Cumbia Sobre el Rio
TTITLE14=Si Mañana
TTITLE15=SoloQuiero un Xodo
TTITLE16=Vivendo en Sueños
TTITLE17=Al Pensar en Ti
TTITLE18=Aunque no sea Conmigo
TTITLE19=La Cumbia de la Paz
TTITLE20=Cumbia Poder
EXTD=
EXTT0=
EXTT1=
EXTT2=
EXTT3=
EXTT4=
EXTT5=
EXTT6=
EXTT7=
EXTT8=
EXTT9=
EXTT10=
EXTT11=
EXTT12=
EXTT13=
EXTT14=
EXTT15=
EXTT16=
EXTT17=
EXTT18=
EXTT19=
EXTT20=
PLAYORDER=
